@startuml
title DataDownload
hide circle
hide empty members
skinparam shadowing false
skinparam ArrowThickness 1.2
skinparam class {
  ArrowColor #404040
  BorderColor #404040
  FontSize 12
}

class "DataDownload" as DataDownload #FEFECE {
  +characterSet : string [0..1]
  +fingerprint : DataFingerprint [0..1]
  +contentUrl : XsdAnyUri [0..1]
  +encodingFormat : DefinedTerm [0..*]
  +contentSize : string [0..1]
  +checksum : string [0..*]
  +conformsTo : XsdAnyUri [0..*]
}
abstract class "AbstractDistribution" as AbstractDistribution #D6EAF8
AbstractDistribution <|-- DataDownload
class "TabularTextDataSet" as TabularTextDataSet #D5F5E3
DataDownload <|-- TabularTextDataSet
class "StructuredDataSet" as StructuredDataSet #D5F5E3
DataDownload <|-- StructuredDataSet
class "PhysicalMapping" as PhysicalMapping #EEEEEE
DataDownload --> "0..*" PhysicalMapping : hasPhysicalMapping
abstract class "Agent" as Agent #EEEEEE
DataDownload --> "0..*" Agent : provider
class "DataFingerprint" as DataFingerprint #EEEEEE
DataDownload --> "0..1" DataFingerprint : fingerprint
class "XsdAnyUri" as XsdAnyUri <<dataType>> #FAE5D3
DataDownload ..> XsdAnyUri : contentUrl
class "DefinedTerm" as DefinedTerm #EEEEEE
DataDownload --> "0..*" DefinedTerm : encodingFormat

@enduml