@startuml
title AttributeComponent
hide circle
hide empty members
skinparam shadowing false
skinparam ArrowThickness 1.2
skinparam ranksep 250
skinparam nodesep 20
skinparam linetype ortho
skinparam class {
  ArrowColor #404040
  BorderColor #404040
  FontSize 12
}

class "AttributeComponent" as AttributeComponent #FEFECE {
  +type : string [1..*]
}
class "DataStructure" as DataStructure #EEEEEE
DataStructure *-- "0..*" AttributeComponent : hasComponent
class "DimensionalDataStructure" as DimensionalDataStructure #EEEEEE
DimensionalDataStructure *-- "0..*" AttributeComponent : hasComponent
class "LongDataStructure" as LongDataStructure #EEEEEE
LongDataStructure *-- "0..*" AttributeComponent : hasComponent
class "WideDataStructure" as WideDataStructure #EEEEEE
WideDataStructure *-- "0..*" AttributeComponent : hasComponent
class "DimensionGroup" as DimensionGroup #EEEEEE
DimensionGroup *-- "0..*" AttributeComponent : hasComponent

@enduml