@startuml
title XsdDateTime
hide circle
hide empty members
skinparam shadowing false
skinparam ArrowThickness 1.2
skinparam ranksep 250
skinparam nodesep 20
skinparam defaultFontSize 36
skinparam class {
  ArrowColor #404040
  BorderColor #404040
  FontSize 36
  AttributeFontSize 30
}

class "XsdDateTime" as XsdDateTime <<dataType>> #FAE5D3
class "ProvActivity" as ProvActivity #EEEEEE
ProvActivity ..> XsdDateTime : startTime
ProvActivity ..> XsdDateTime : endTime
class "AgentInRole" as AgentInRole #EEEEEE
AgentInRole ..> XsdDateTime : validFrom
AgentInRole ..> XsdDateTime : validThrough

@enduml