@startuml
title CatalogRecord
hide circle
hide empty members
skinparam shadowing false
skinparam ArrowThickness 1.2
skinparam ranksep 250
skinparam nodesep 20
skinparam defaultFontSize 36
skinparam class {
  ArrowColor #404040
  BorderColor #404040
  FontSize 36
  AttributeFontSize 30
}

class "CatalogRecord" as CatalogRecord #FEFECE {
  +additionalType : string [1..*]
  +conformsTo : XsdAnyUri [1..*]
  +about : XsdAnyUri [0..1]
}
class "ConceptScheme" as ConceptScheme #EEEEEE
ConceptScheme *-- "1" CatalogRecord : subjectOf
class "XsdAnyUri" as XsdAnyUri <<dataType>> #FAE5D3
CatalogRecord ..> XsdAnyUri : conformsTo

@enduml