@startuml
title VariableMeasured
hide circle
hide empty members
skinparam shadowing false
skinparam ArrowThickness 1.2
skinparam ranksep 250
skinparam nodesep 20
skinparam defaultFontSize 36
skinparam class {
  ArrowColor #404040
  BorderColor #404040
  FontSize 36
  AttributeFontSize 30
}

class "VariableMeasured" as VariableMeasured #FEFECE {
  +identifier : XsdAnyUri [0..1]
  +name : string [0..1]
  +description : string [0..1]
  +alternateName : string [0..*]
  +minValue : string [0..1]
  +maxValue : string [0..1]
  +unitCode : string [0..1]
  +unitText : string [0..1]
}
class "Dataset" as Dataset #EEEEEE
Dataset *-- "0..*" VariableMeasured : variableMeasured
class "DefinedTerm" as DefinedTerm #EEEEEE
VariableMeasured --> "0..1" DefinedTerm : measurementTechnique
class "XsdAnyUri" as XsdAnyUri <<dataType>> #FAE5D3
VariableMeasured ..> XsdAnyUri : identifier

@enduml